<mxfile host="app.diagrams.net" agent="Mozilla/5.0 (Windows NT 10.0; Win64; x64) AppleWebKit/537.36 (KHTML, like Gecko) Chrome/131.0.0.0 Safari/537.36" version="24.9.0">
  <diagram name="Page-1" id="4Xb6PXC_9b97_g7eAnvP">
    <mxGraphModel dx="1235" dy="665" grid="1" gridSize="10" guides="1" tooltips="1" connect="1" arrows="1" fold="1" page="1" pageScale="1" pageWidth="827" pageHeight="1169" math="0" shadow="0">
      <root>
        <mxCell id="0" />
        <mxCell id="1" parent="0" />
        <mxCell id="AFdFj5SvSIg2sS4lbL3v-3" value="" style="edgeStyle=orthogonalEdgeStyle;rounded=0;orthogonalLoop=1;jettySize=auto;html=1;" edge="1" parent="1" source="AFdFj5SvSIg2sS4lbL3v-1" target="AFdFj5SvSIg2sS4lbL3v-2">
          <mxGeometry relative="1" as="geometry" />
        </mxCell>
        <mxCell id="AFdFj5SvSIg2sS4lbL3v-1" value="เริ่ม" style="ellipse;whiteSpace=wrap;html=1;" vertex="1" parent="1">
          <mxGeometry x="300" y="40" width="170" height="80" as="geometry" />
        </mxCell>
        <mxCell id="AFdFj5SvSIg2sS4lbL3v-12" value="" style="edgeStyle=orthogonalEdgeStyle;rounded=0;orthogonalLoop=1;jettySize=auto;html=1;" edge="1" parent="1" source="AFdFj5SvSIg2sS4lbL3v-2" target="AFdFj5SvSIg2sS4lbL3v-11">
          <mxGeometry relative="1" as="geometry" />
        </mxCell>
        <mxCell id="AFdFj5SvSIg2sS4lbL3v-2" value="สร้างโปรเจคต์" style="whiteSpace=wrap;html=1;" vertex="1" parent="1">
          <mxGeometry x="312.5" y="170" width="145" height="60" as="geometry" />
        </mxCell>
        <mxCell id="AFdFj5SvSIg2sS4lbL3v-8" value="" style="edgeStyle=orthogonalEdgeStyle;rounded=0;orthogonalLoop=1;jettySize=auto;html=1;" edge="1" parent="1" source="AFdFj5SvSIg2sS4lbL3v-6" target="AFdFj5SvSIg2sS4lbL3v-7">
          <mxGeometry relative="1" as="geometry" />
        </mxCell>
        <mxCell id="AFdFj5SvSIg2sS4lbL3v-6" value="&lt;font&gt;แสดงผลตัวแปรทั้งหมดเรียงลำดับดังนี้ a b c d&lt;/font&gt;" style="shape=parallelogram;perimeter=parallelogramPerimeter;whiteSpace=wrap;html=1;fixedSize=1;" vertex="1" parent="1">
          <mxGeometry x="255" y="430" width="260" height="60" as="geometry" />
        </mxCell>
        <mxCell id="AFdFj5SvSIg2sS4lbL3v-15" value="" style="edgeStyle=orthogonalEdgeStyle;rounded=0;orthogonalLoop=1;jettySize=auto;html=1;" edge="1" parent="1" source="AFdFj5SvSIg2sS4lbL3v-7" target="AFdFj5SvSIg2sS4lbL3v-14">
          <mxGeometry relative="1" as="geometry" />
        </mxCell>
        <mxCell id="AFdFj5SvSIg2sS4lbL3v-7" value="&lt;font&gt;10 20.0 Haha a&lt;/font&gt;" style="shape=parallelogram;perimeter=parallelogramPerimeter;whiteSpace=wrap;html=1;fixedSize=1;" vertex="1" parent="1">
          <mxGeometry x="255" y="570" width="260" height="60" as="geometry" />
        </mxCell>
        <mxCell id="AFdFj5SvSIg2sS4lbL3v-13" value="" style="edgeStyle=orthogonalEdgeStyle;rounded=0;orthogonalLoop=1;jettySize=auto;html=1;" edge="1" parent="1" source="AFdFj5SvSIg2sS4lbL3v-11" target="AFdFj5SvSIg2sS4lbL3v-6">
          <mxGeometry relative="1" as="geometry" />
        </mxCell>
        <mxCell id="AFdFj5SvSIg2sS4lbL3v-11" value="กำหนดตัวแปร" style="whiteSpace=wrap;html=1;" vertex="1" parent="1">
          <mxGeometry x="312.5" y="310" width="145" height="60" as="geometry" />
        </mxCell>
        <mxCell id="AFdFj5SvSIg2sS4lbL3v-14" value="จบ" style="ellipse;whiteSpace=wrap;html=1;" vertex="1" parent="1">
          <mxGeometry x="300" y="710" width="170" height="80" as="geometry" />
        </mxCell>
      </root>
    </mxGraphModel>
  </diagram>
</mxfile>
